<svg xmlns="http://www.w3.org/2000/svg" viewBox="0 0 64 64" fill="none">
  <defs>
    <linearGradient id="df-wash" x1="0" y1="0" x2="1" y2="1">
      <stop offset="0%" stop-color="#fde68a" stop-opacity="0.5"/>
      <stop offset="100%" stop-color="#c4b5fd" stop-opacity="0.4"/>
    </linearGradient>
  </defs>
  <!-- main sparkle / star -->
  <path d="M32 6 L35 24 L52 18 L38 28 L56 32 L38 36 L52 46 L35 40 L32 58 L29 40 L12 46 L26 36 L8 32 L26 28 L12 18 L29 24 Z" fill="url(#df-wash)" stroke="#f59e0b" stroke-width="1.5" stroke-linejoin="round"/>
  <!-- inner glow -->
  <circle cx="32" cy="32" r="8" fill="#fef3c7" stroke="#fbbf24" stroke-width="1" opacity="0.8"/>
  <!-- smaller sparkles -->
  <path d="M50 8 L51 5 L52 8 L55 9 L52 10 L51 13 L50 10 L47 9 Z" fill="#f9a8d4" opacity="0.7"/>
  <path d="M10 10 L11 7 L12 10 L15 11 L12 12 L11 15 L10 12 L7 11 Z" fill="#93c5fd" opacity="0.6"/>
  <path d="M52 48 L53 46 L54 48 L56 49 L54 50 L53 52 L52 50 L50 49 Z" fill="#a78bfa" opacity="0.6"/>
  <circle cx="12" cy="50" r="1.5" fill="#86efac" opacity="0.5"/>
</svg>
