<svg xmlns="http://www.w3.org/2000/svg" viewBox="0 0 64 64" fill="none">
  <defs>
    <linearGradient id="da-wash" x1="0" y1="0" x2="1" y2="1">
      <stop offset="0%" stop-color="#c4b5fd" stop-opacity="0.5"/>
      <stop offset="100%" stop-color="#93c5fd" stop-opacity="0.4"/>
    </linearGradient>
  </defs>
  <!-- tablet body -->
  <rect x="10" y="14" width="36" height="28" rx="4" fill="url(#da-wash)" stroke="#8b5cf6" stroke-width="1.8"/>
  <!-- screen -->
  <rect x="14" y="18" width="28" height="20" rx="2" fill="#ede9fe" stroke="#a78bfa" stroke-width="1"/>
  <!-- drawing on screen -->
  <path d="M18 30 Q22 22 28 28 Q34 34 38 26" stroke="#e879a0" stroke-width="2" stroke-linecap="round" fill="none"/>
  <!-- stylus -->
  <path d="M44 12 L50 34" stroke="#6d6875" stroke-width="1.8" stroke-linecap="round"/>
  <circle cx="50" cy="35" r="1.5" fill="#a78bfa"/>
  <!-- sparkles -->
  <path d="M52 10 L53 7 L54 10 L57 11 L54 12 L53 15 L52 12 L49 11 Z" fill="#fbbf24" opacity="0.7"/>
  <path d="M12 10 L12.5 8 L13 10 L15 10.5 L13 11 L12.5 13 L12 11 L10 10.5 Z" fill="#f9a8d4" opacity="0.6"/>
  <circle cx="8" cy="44" r="1" fill="#7dd3fc" opacity="0.5"/>
</svg>
